# xmcd
#
# Track frame offsets:
# 150
# 31482
# 65497
# 84680
# 117151
# 128981
# 142891
# 159814
# 178219
# 190337
# 201058
# 223417
# 253166
# 276793
# 305472
#
# Disc length: 4331 seconds
#
# Revision: 0
# Processed by: cddbd v1.5.2PL0 Copyright (c) Steve Scherf et al.
# Submitted via: Audion 3.0.2 (http://www.panic.com/audion/)
#
DISCID=e210e90f
DTITLE=iTunescomp - iTunes
DYEAR=1900
DGENRE=
TTITLE0=sonicyouth
TTITLE1=sonicyouth1
TTITLE2=sonicyouth2
TTITLE3=sonicyouth3
TTITLE4=sonicyouth4
TTITLE5=Magneticfields
TTITLE6=Magneticfields1
TTITLE7=Magneticfields2
TTITLE8=Magneticfields3
TTITLE9=Belle
TTITLE10=Belle1
TTITLE11=Belle2
TTITLE12=PeterGabriel
TTITLE13=PeterGabriel
TTITLE14=Moodyblues
EXTD=
EXTT0=
EXTT1=
EXTT2=
EXTT3=
EXTT4=
EXTT5=
EXTT6=
EXTT7=
EXTT8=
EXTT9=
EXTT10=
EXTT11=
EXTT12=
EXTT13=
EXTT14=
PLAYORDER=
